<svg id="svg" version="1.1" xmlns="http://www.w3.org/2000/svg" xmlns:xlink="http://www.w3.org/1999/xlink" width="400" height="400" viewBox="0, 0, 400,400"><g id="svgg"><path id="path0" d="M144.600 124.582 C 130.013 127.539,119.208 136.757,114.754 150.043 L 113.495 153.800 113.247 166.200 L 113.000 178.600 106.760 178.710 C 98.760 178.851,99.600 176.353,99.600 200.000 C 99.600 223.647,98.760 221.149,106.760 221.290 L 113.000 221.400 113.200 244.658 C 113.391 266.815,113.436 267.957,114.162 268.758 C 114.905 269.579,115.232 269.600,127.053 269.600 L 139.182 269.600 139.891 268.518 C 140.535 267.536,140.611 265.951,140.721 251.312 L 140.842 235.187 151.921 235.294 L 163.000 235.400 163.200 251.468 L 163.400 267.536 164.370 268.568 L 165.339 269.600 176.888 269.600 L 188.436 269.600 189.418 268.618 L 190.400 267.636 190.400 244.661 C 190.400 224.079,190.466 221.660,191.033 221.443 C 191.859 221.126,214.541 221.126,215.367 221.443 C 215.934 221.660,216.000 224.093,216.000 244.814 L 216.000 267.942 217.054 268.771 C 218.090 269.586,218.467 269.600,239.256 269.600 L 260.404 269.600 264.302 268.581 C 276.798 265.314,286.269 256.609,289.521 245.400 C 290.748 241.169,291.200 236.633,291.200 228.536 L 291.200 221.200 295.336 221.200 C 300.873 221.200,300.400 223.180,300.400 200.000 C 300.400 176.469,301.135 178.854,293.841 178.711 L 288.200 178.600 288.297 177.000 C 289.841 151.499,285.250 138.901,271.567 131.091 C 263.722 126.613,261.037 126.229,237.465 126.213 L 217.531 126.200 216.765 127.144 C 216.030 128.052,216.000 129.063,216.000 153.202 C 216.000 175.732,215.935 178.339,215.367 178.557 C 214.449 178.910,191.488 178.844,190.927 178.487 C 190.587 178.271,190.412 174.834,190.300 166.193 C 190.128 152.789,189.963 151.707,187.169 145.677 C 180.160 130.545,161.297 121.197,144.600 124.582 M157.654 150.210 C 162.521 153.633,163.248 156.124,163.107 168.886 L 163.000 178.600 151.900 178.706 L 140.800 178.813 140.800 168.239 C 140.800 156.696,140.956 155.768,143.454 152.494 C 146.396 148.636,153.737 147.455,157.654 150.210 M255.586 151.795 C 259.541 153.190,261.766 156.265,262.474 161.313 C 263.047 165.404,262.742 177.305,262.042 178.149 C 261.490 178.814,243.054 179.180,241.433 178.557 C 240.773 178.304,240.419 152.114,241.067 151.467 C 241.630 150.904,253.842 151.180,255.586 151.795 M299.216 200.000 L 299.216 219.800 200.000 219.800 L 100.784 219.800 100.788 200.100 C 100.790 189.265,100.794 180.310,100.796 180.199 C 100.798 180.089,145.443 180.044,200.008 180.099 L 299.216 180.200 299.216 200.000 M130.667 194.667 C 130.258 195.075,130.350 206.722,130.764 206.978 C 131.586 207.485,132.400 206.686,132.400 205.373 C 132.400 204.148,132.538 203.994,133.985 203.604 C 137.454 202.670,138.112 196.562,134.926 194.865 C 133.985 194.364,131.104 194.230,130.667 194.667 M148.870 195.326 C 146.510 197.837,148.034 207.200,150.802 207.200 C 153.719 207.200,154.400 205.941,154.400 200.549 C 154.400 194.839,151.712 192.300,148.870 195.326 M166.267 194.667 C 165.743 195.190,165.962 206.701,166.500 206.898 C 167.612 207.307,168.000 206.710,168.000 204.590 C 168.000 202.124,168.432 201.632,169.585 202.785 C 170.133 203.333,170.400 204.124,170.400 205.200 C 170.400 206.640,170.500 206.800,171.400 206.800 C 172.592 206.800,172.742 205.259,171.807 202.633 C 171.325 201.283,171.328 200.953,171.824 200.244 C 172.967 198.612,172.410 195.832,170.769 194.984 C 169.616 194.388,166.748 194.186,166.267 194.667 M183.483 194.650 C 182.903 195.230,183.231 196.032,184.200 196.400 C 185.193 196.777,185.200 196.817,185.200 201.747 C 185.200 205.919,185.302 206.754,185.836 206.959 C 187.027 207.415,187.200 206.755,187.200 201.768 C 187.200 196.818,187.207 196.780,188.216 196.320 C 190.113 195.455,189.270 194.612,186.379 194.484 C 184.942 194.420,183.639 194.495,183.483 194.650 M200.684 194.649 C 200.119 195.215,200.355 206.697,200.936 206.920 C 201.944 207.307,202.355 206.581,202.477 204.193 C 202.596 201.887,202.641 201.798,203.800 201.598 C 204.500 201.478,205.000 201.145,205.000 200.800 C 205.000 200.454,204.500 200.122,203.800 200.002 C 202.717 199.816,202.588 199.634,202.478 198.124 L 202.356 196.451 203.878 196.325 C 205.092 196.225,205.400 196.038,205.400 195.400 C 205.400 194.578,201.394 193.940,200.684 194.649 M217.670 195.326 C 215.310 197.837,216.834 207.200,219.602 207.200 C 222.519 207.200,223.200 205.941,223.200 200.549 C 223.200 194.839,220.512 192.300,217.670 195.326 M235.080 194.653 C 234.926 194.807,234.800 197.600,234.800 200.859 C 234.800 207.551,234.725 207.415,238.238 207.128 C 240.544 206.939,240.777 205.311,238.524 205.126 L 237.000 205.000 236.800 199.805 C 236.603 194.687,236.213 193.520,235.080 194.653 M251.880 194.653 C 251.318 195.216,251.557 206.698,252.136 206.920 C 253.449 207.424,253.624 206.617,253.511 200.575 C 253.401 194.656,253.072 193.461,251.880 194.653 M266.029 195.454 C 264.957 196.816,264.790 204.437,265.800 205.879 C 267.085 207.714,270.784 207.204,271.344 205.116 C 273.201 198.184,269.366 191.212,266.029 195.454 M151.920 196.480 C 152.478 197.038,152.582 203.893,152.046 204.739 C 150.957 206.458,150.201 205.039,150.085 201.054 C 149.954 196.553,150.538 195.098,151.920 196.480 M220.720 196.480 C 221.278 197.038,221.382 203.893,220.846 204.739 C 219.757 206.458,219.001 205.039,218.885 201.054 C 218.754 196.553,219.338 195.098,220.720 196.480 M269.120 196.480 C 270.782 198.142,269.367 206.092,267.604 205.002 C 266.527 204.337,267.264 196.000,268.400 196.000 C 268.532 196.000,268.856 196.216,269.120 196.480 M134.320 196.880 C 135.162 197.722,134.927 201.104,133.992 201.604 C 132.748 202.270,132.400 201.755,132.400 199.243 C 132.400 196.406,133.048 195.608,134.320 196.880 M169.767 196.643 C 170.760 197.024,170.629 199.873,169.604 200.199 C 168.378 200.588,168.000 200.111,168.000 198.176 C 168.000 196.364,168.319 196.087,169.767 196.643 M263.510 228.186 C 263.731 241.807,260.838 244.906,248.085 244.709 L 241.000 244.600 240.894 233.228 C 240.811 224.397,240.900 221.782,241.294 221.530 C 241.572 221.351,246.660 221.249,252.600 221.303 L 263.400 221.400 263.510 228.186 " stroke="none" fill="#fafafa" fill-rule="evenodd"></path><path id="path1" d="M0.000 200.000 L 0.000 400.000 200.000 400.000 L 400.000 400.000 400.000 200.000 L 400.000 0.000 200.000 0.000 L 0.000 0.000 0.000 200.000 M161.400 124.384 C 174.925 127.445,186.481 138.377,190.088 151.521 C 190.835 154.242,190.953 155.962,191.103 166.300 L 191.272 178.000 203.236 178.000 L 215.200 178.000 215.200 153.219 C 215.200 127.428,215.220 127.112,216.928 125.978 C 219.439 124.312,256.937 125.134,263.333 126.996 C 281.365 132.244,288.947 144.036,288.983 166.889 L 289.000 177.979 294.368 178.089 L 299.736 178.200 300.439 179.400 C 301.083 180.500,301.142 182.218,301.142 200.000 C 301.142 223.670,301.619 221.747,295.699 221.914 L 291.661 222.027 291.499 231.914 C 291.368 239.831,291.193 242.318,290.616 244.400 C 287.319 256.308,278.122 265.296,265.333 269.111 L 261.800 270.165 240.600 270.309 C 225.904 270.409,218.941 270.317,217.902 270.011 C 215.121 269.191,215.200 269.933,215.200 244.620 L 215.200 222.000 203.200 222.000 L 191.200 222.000 191.200 244.440 C 191.200 268.867,191.195 268.927,188.962 269.945 C 187.715 270.513,166.520 270.578,165.047 270.018 C 162.648 269.106,162.619 268.904,162.400 251.818 L 162.200 236.200 151.700 236.093 L 141.200 235.987 141.200 251.963 L 141.200 267.939 140.164 269.169 L 139.129 270.400 126.964 270.400 C 115.469 270.400,114.757 270.357,114.026 269.626 C 112.509 268.109,112.405 266.449,112.402 243.910 L 112.400 222.021 106.332 221.910 L 100.264 221.800 99.561 220.600 C 98.917 219.500,98.858 217.783,98.858 200.000 C 98.858 182.217,98.917 180.500,99.561 179.400 L 100.264 178.200 106.332 178.090 L 112.400 177.979 112.400 168.679 C 112.400 159.284,112.799 154.091,113.772 150.800 C 119.546 131.283,140.509 119.656,161.400 124.384 M148.699 149.661 C 143.005 151.251,141.433 155.114,141.275 167.900 L 141.150 178.000 151.775 178.000 L 162.400 178.000 162.400 168.473 C 162.400 157.812,162.113 156.059,159.886 153.139 C 157.497 150.007,152.746 148.529,148.699 149.661 M241.600 164.764 L 241.600 178.000 251.575 178.000 L 261.551 178.000 261.808 176.283 C 262.227 173.490,261.788 159.978,261.220 158.200 C 259.762 153.631,256.264 151.951,247.700 151.704 L 241.600 151.528 241.600 164.764 M101.200 200.000 L 101.200 219.600 200.000 219.600 L 298.800 219.600 298.800 200.000 L 298.800 180.400 200.000 180.400 L 101.200 180.400 101.200 200.000 M135.868 194.608 C 139.204 196.793,137.632 204.400,133.845 204.400 C 133.472 204.400,133.204 204.868,133.125 205.660 C 132.975 207.175,132.099 207.812,130.662 207.451 L 129.600 207.185 129.600 200.812 C 129.600 195.175,129.681 194.390,130.300 194.007 C 131.223 193.437,134.645 193.807,135.868 194.608 M153.205 194.202 C 155.635 195.459,156.135 204.694,153.878 206.635 C 150.207 209.791,147.193 207.183,147.214 200.869 C 147.235 194.475,149.296 192.181,153.205 194.202 M170.121 194.027 C 172.687 194.740,173.954 197.896,172.679 200.400 C 172.263 201.215,172.268 201.689,172.705 202.965 C 173.755 206.032,172.858 208.003,170.662 207.451 C 169.713 207.213,169.600 206.997,169.600 205.416 C 169.600 204.443,169.420 203.536,169.200 203.400 C 168.961 203.253,168.800 203.738,168.800 204.603 C 168.800 206.523,168.177 207.600,167.066 207.600 C 165.361 207.600,165.200 206.990,165.200 200.540 C 165.200 193.208,165.542 192.755,170.121 194.027 M189.383 194.138 C 190.324 194.826,189.951 196.615,188.804 196.915 C 188.052 197.111,188.000 197.452,188.000 202.155 L 188.000 207.185 186.938 207.451 C 184.881 207.968,184.611 207.376,184.488 202.080 C 184.386 197.677,184.306 197.224,183.589 196.996 C 180.732 196.090,182.647 193.600,186.200 193.600 C 187.618 193.600,188.956 193.826,189.383 194.138 M205.626 194.014 C 207.171 194.841,206.650 196.751,204.800 197.046 C 202.856 197.357,202.331 199.200,204.186 199.200 C 206.246 199.200,206.350 202.181,204.301 202.472 C 203.538 202.580,203.368 202.905,203.193 204.600 C 202.892 207.508,201.552 208.592,200.080 207.120 C 199.227 206.267,199.424 194.542,200.300 194.032 C 201.217 193.498,204.640 193.486,205.626 194.014 M222.005 194.202 C 224.435 195.459,224.935 204.694,222.678 206.635 C 219.007 209.791,215.993 207.183,216.014 200.869 C 216.035 194.475,218.096 192.181,222.005 194.202 M236.869 194.262 C 237.499 194.832,237.600 195.580,237.600 199.662 L 237.600 204.400 238.567 204.400 C 240.668 204.400,241.907 206.690,240.167 207.357 C 239.050 207.786,234.976 207.616,234.480 207.120 C 233.627 206.267,233.824 194.542,234.700 194.032 C 235.675 193.464,236.029 193.502,236.869 194.262 M253.669 194.262 C 254.512 195.025,254.773 205.356,253.986 206.826 C 253.523 207.691,252.015 207.855,251.280 207.120 C 250.427 206.267,250.624 194.542,251.500 194.032 C 252.475 193.464,252.829 193.502,253.669 194.262 M270.342 194.170 C 273.196 195.646,273.365 205.225,270.569 207.057 C 266.934 209.439,264.400 206.959,264.400 201.020 C 264.400 194.476,266.424 192.144,270.342 194.170 M150.800 200.600 C 150.800 202.867,150.961 204.400,151.200 204.400 C 151.439 204.400,151.600 202.867,151.600 200.600 C 151.600 198.333,151.439 196.800,151.200 196.800 C 150.961 196.800,150.800 198.333,150.800 200.600 M219.600 200.600 C 219.600 202.867,219.761 204.400,220.000 204.400 C 220.239 204.400,220.400 202.867,220.400 200.600 C 220.400 198.333,220.239 196.800,220.000 196.800 C 219.761 196.800,219.600 198.333,219.600 200.600 M133.200 199.200 C 133.200 200.300,133.380 201.200,133.600 201.200 C 133.820 201.200,134.000 200.300,134.000 199.200 C 134.000 198.100,133.820 197.200,133.600 197.200 C 133.380 197.200,133.200 198.100,133.200 199.200 M168.800 198.400 C 168.800 199.060,168.980 199.600,169.200 199.600 C 169.420 199.600,169.600 199.060,169.600 198.400 C 169.600 197.740,169.420 197.200,169.200 197.200 C 168.980 197.200,168.800 197.740,168.800 198.400 M268.000 200.800 C 268.000 202.933,268.163 204.400,268.400 204.400 C 268.637 204.400,268.800 202.933,268.800 200.800 C 268.800 198.667,268.637 197.200,268.400 197.200 C 268.163 197.200,268.000 198.667,268.000 200.800 M241.600 233.200 L 241.600 244.400 247.729 244.400 C 260.327 244.400,263.147 241.172,263.187 226.700 L 263.200 222.000 252.400 222.000 L 241.600 222.000 241.600 233.200 " stroke="none" fill="#040404" fill-rule="evenodd"></path><path id="path2" d="M150.291 123.889 C 151.001 123.977,152.261 123.979,153.091 123.892 C 153.921 123.805,153.340 123.733,151.800 123.731 C 150.260 123.729,149.581 123.800,150.291 123.889 M156.833 124.147 C 156.925 124.228,157.720 124.404,158.600 124.538 C 159.715 124.707,159.958 124.671,159.400 124.419 C 158.632 124.071,156.490 123.844,156.833 124.147 M140.600 125.200 C 140.096 125.417,140.022 125.544,140.400 125.544 C 140.730 125.544,141.360 125.389,141.800 125.200 C 142.304 124.983,142.378 124.856,142.000 124.856 C 141.670 124.856,141.040 125.011,140.600 125.200 M161.800 125.200 C 162.240 125.389,162.870 125.544,163.200 125.544 C 163.578 125.544,163.504 125.417,163.000 125.200 C 162.560 125.011,161.930 124.856,161.600 124.856 C 161.222 124.856,161.296 124.983,161.800 125.200 M218.140 125.906 C 217.886 126.068,226.616 126.200,237.540 126.200 C 248.463 126.200,256.410 126.083,255.200 125.940 C 252.132 125.576,218.703 125.546,218.140 125.906 M259.600 126.800 C 260.968 127.238,262.019 127.238,261.000 126.800 C 260.560 126.611,259.840 126.462,259.400 126.468 C 258.757 126.477,258.796 126.543,259.600 126.800 M170.000 128.179 C 170.000 128.289,170.540 128.659,171.200 129.000 C 171.860 129.341,172.400 129.531,172.400 129.421 C 172.400 129.311,171.860 128.941,171.200 128.600 C 170.540 128.259,170.000 128.069,170.000 128.179 M215.598 153.200 L 215.400 178.200 203.200 178.200 L 191.000 178.200 190.790 168.000 L 190.579 157.800 190.490 168.057 C 190.411 177.095,190.475 178.343,191.033 178.557 C 191.981 178.921,214.921 178.838,215.503 178.468 C 215.900 178.216,215.984 172.891,215.902 153.175 L 215.797 128.200 215.598 153.200 M172.800 129.755 C 172.800 130.031,175.621 131.712,175.794 131.539 C 175.878 131.455,175.238 130.980,174.373 130.482 C 173.508 129.984,172.800 129.657,172.800 129.755 M270.800 130.579 C 270.800 130.689,271.340 131.059,272.000 131.400 C 272.660 131.741,273.200 131.931,273.200 131.821 C 273.200 131.711,272.660 131.341,272.000 131.000 C 271.340 130.659,270.800 130.469,270.800 130.579 M125.878 133.013 C 125.260 133.556,124.914 134.000,125.108 134.000 C 125.302 134.000,125.883 133.550,126.400 133.000 C 127.595 131.728,127.331 131.734,125.878 133.013 M274.400 132.805 C 274.950 133.284,276.154 134.378,277.077 135.237 C 277.999 136.097,278.895 136.800,279.070 136.800 C 279.431 136.800,275.494 133.275,274.232 132.468 C 273.709 132.133,273.771 132.259,274.400 132.805 M179.800 135.200 C 180.659 136.080,181.452 136.800,181.562 136.800 C 181.672 136.800,181.059 136.080,180.200 135.200 C 179.341 134.320,178.548 133.600,178.438 133.600 C 178.328 133.600,178.941 134.320,179.800 135.200 M120.487 138.616 C 118.790 140.923,119.083 140.914,120.979 138.600 C 121.790 137.610,122.307 136.807,122.127 136.816 C 121.947 136.824,121.209 137.634,120.487 138.616 M279.200 137.325 C 279.200 137.394,279.785 137.979,280.500 138.625 L 281.800 139.800 280.625 138.500 C 279.530 137.288,279.200 137.016,279.200 137.325 M184.227 140.600 C 185.600 142.400,185.868 142.403,184.704 140.605 C 184.207 139.838,183.656 139.208,183.480 139.205 C 183.303 139.202,183.640 139.830,184.227 140.600 M283.560 143.000 C 284.234 144.305,284.788 145.028,284.785 144.600 C 284.783 144.380,284.414 143.750,283.964 143.200 C 283.421 142.536,283.285 142.469,283.560 143.000 M145.300 150.774 C 144.409 151.419,143.553 152.152,143.398 152.403 C 143.182 152.753,146.312 150.554,147.167 149.756 C 147.787 149.176,146.647 149.798,145.300 150.774 M159.200 151.800 C 159.946 152.570,160.647 153.200,160.757 153.200 C 160.867 153.200,160.346 152.570,159.600 151.800 C 158.854 151.030,158.153 150.400,158.043 150.400 C 157.933 150.400,158.454 151.030,159.200 151.800 M241.067 151.467 C 240.419 152.114,240.773 178.304,241.433 178.557 C 241.781 178.691,246.425 178.800,251.753 178.800 C 261.675 178.800,262.435 178.687,262.375 177.220 C 262.359 176.843,262.207 176.955,261.985 177.507 L 261.621 178.414 251.510 178.307 L 241.400 178.200 241.400 164.700 C 241.400 157.275,241.385 151.200,241.367 151.200 C 241.348 151.200,241.213 151.320,241.067 151.467 M253.800 151.600 C 254.240 151.789,254.870 151.944,255.200 151.944 C 255.578 151.944,255.504 151.817,255.000 151.600 C 254.560 151.411,253.930 151.256,253.600 151.256 C 253.222 151.256,253.296 151.383,253.800 151.600 M256.033 152.121 C 256.125 152.188,256.740 152.558,257.400 152.945 L 258.600 153.647 257.656 152.824 C 257.136 152.371,256.521 152.000,256.289 152.000 C 256.057 152.000,255.942 152.054,256.033 152.121 M287.444 153.000 C 287.773 154.471,288.002 154.790,287.994 153.767 C 287.991 153.345,287.805 152.730,287.582 152.400 C 287.285 151.962,287.248 152.124,287.444 153.000 M189.862 153.800 C 189.996 154.680,190.172 155.475,190.253 155.567 C 190.556 155.910,190.329 153.768,189.981 153.000 C 189.729 152.442,189.693 152.685,189.862 153.800 M259.599 154.700 C 260.122 155.415,260.613 156.000,260.689 156.000 C 260.993 156.000,260.001 154.500,259.345 153.967 C 258.913 153.616,259.010 153.896,259.599 154.700 M113.060 156.890 C 112.921 158.051,112.805 163.360,112.803 168.690 L 112.800 178.380 106.533 178.490 C 101.366 178.581,100.237 178.705,100.102 179.200 C 99.985 179.633,100.036 179.664,100.286 179.311 C 100.528 178.970,102.510 178.788,106.817 178.711 L 113.000 178.600 113.214 166.800 C 113.332 160.310,113.402 154.951,113.371 154.890 C 113.339 154.830,113.200 155.730,113.060 156.890 M288.285 158.400 C 288.407 159.830,288.572 161.075,288.653 161.167 C 288.920 161.470,288.711 158.222,288.385 157.000 C 288.182 156.244,288.146 156.762,288.285 158.400 M162.662 158.600 C 162.796 159.480,162.972 160.275,163.053 160.367 C 163.356 160.710,163.129 158.568,162.781 157.800 C 162.529 157.242,162.493 157.485,162.662 158.600 M262.564 169.000 C 262.563 172.740,262.623 174.324,262.697 172.520 C 262.771 170.715,262.772 167.655,262.698 165.720 C 262.625 163.784,262.564 165.260,262.564 169.000 M288.240 175.640 C 288.093 176.557,288.052 177.385,288.147 177.480 C 288.242 177.576,288.446 176.910,288.600 176.000 C 288.754 175.090,288.796 174.262,288.693 174.160 C 288.590 174.057,288.387 174.723,288.240 175.640 M151.800 178.400 L 140.600 178.619 151.676 178.710 C 158.728 178.767,162.843 178.655,163.000 178.400 C 163.136 178.180,163.192 178.041,163.124 178.090 C 163.056 178.140,157.960 178.280,151.800 178.400 M288.261 178.500 C 288.363 178.665,290.942 178.800,293.990 178.800 C 297.377 178.800,299.612 178.960,299.737 179.210 C 299.849 179.436,299.894 179.391,299.838 179.110 C 299.763 178.736,298.182 178.547,293.905 178.400 C 290.698 178.290,288.158 178.335,288.261 178.500 M99.467 180.267 C 99.097 180.637,99.129 219.509,99.500 219.738 C 99.665 219.840,99.800 210.941,99.800 199.962 C 99.800 188.983,99.785 180.000,99.767 180.000 C 99.748 180.000,99.613 180.120,99.467 180.267 M300.200 200.000 C 300.200 210.958,300.335 219.840,300.500 219.738 C 300.892 219.496,300.892 180.504,300.500 180.262 C 300.335 180.160,300.200 189.042,300.200 200.000 M130.267 194.667 C 129.897 195.036,129.929 206.709,130.300 206.938 C 130.465 207.040,130.600 204.261,130.600 200.762 C 130.600 197.263,130.585 194.400,130.567 194.400 C 130.548 194.400,130.413 194.520,130.267 194.667 M153.314 195.320 C 153.801 195.826,154.274 196.187,154.364 196.123 C 154.598 195.955,153.142 194.400,152.752 194.400 C 152.574 194.400,152.827 194.814,153.314 195.320 M165.690 200.667 C 165.781 205.834,165.905 206.963,166.400 207.098 C 166.865 207.224,166.883 207.178,166.479 206.894 C 166.081 206.614,165.987 205.099,166.079 200.463 C 166.146 197.128,166.060 194.399,165.890 194.399 C 165.719 194.400,165.629 197.220,165.690 200.667 M189.064 195.124 C 189.193 195.615,188.931 195.994,188.249 196.305 C 187.262 196.754,187.243 196.851,187.122 201.944 C 187.055 204.794,187.135 207.042,187.300 206.939 C 187.465 206.837,187.600 204.542,187.600 201.841 C 187.600 196.989,187.612 196.923,188.600 196.473 C 189.547 196.041,190.052 194.400,189.237 194.400 C 189.038 194.400,188.960 194.726,189.064 195.124 M200.090 200.667 C 200.181 205.834,200.305 206.963,200.800 207.098 C 201.265 207.224,201.283 207.178,200.879 206.894 C 200.481 206.614,200.387 205.099,200.479 200.463 C 200.546 197.128,200.460 194.399,200.290 194.399 C 200.119 194.400,200.029 197.220,200.090 200.667 M205.368 195.300 C 205.395 196.058,205.164 196.220,203.900 196.324 C 203.075 196.392,202.400 196.586,202.400 196.755 C 202.400 197.166,204.869 196.804,205.500 196.301 C 206.057 195.856,206.186 194.400,205.668 194.400 C 205.486 194.400,205.351 194.805,205.368 195.300 M222.114 195.320 C 222.601 195.826,223.074 196.187,223.164 196.123 C 223.398 195.955,221.942 194.400,221.552 194.400 C 221.374 194.400,221.627 194.814,222.114 195.320 M234.490 200.667 C 234.581 205.834,234.705 206.963,235.200 207.098 C 235.665 207.224,235.683 207.178,235.279 206.894 C 234.881 206.614,234.787 205.099,234.879 200.463 C 234.946 197.128,234.860 194.399,234.690 194.399 C 234.519 194.400,234.429 197.220,234.490 200.667 M251.290 200.667 C 251.381 205.834,251.505 206.963,252.000 207.098 C 252.465 207.224,252.483 207.178,252.079 206.894 C 251.681 206.614,251.587 205.099,251.679 200.463 C 251.746 197.128,251.660 194.399,251.490 194.399 C 251.319 194.400,251.229 197.220,251.290 200.667 M265.629 195.454 C 264.780 196.534,264.334 204.863,265.100 205.339 C 265.265 205.442,265.343 203.533,265.274 201.097 C 265.160 197.113,265.232 196.553,265.986 195.534 C 267.043 194.104,266.744 194.037,265.629 195.454 M270.652 195.416 C 271.640 196.403,271.664 196.559,271.534 200.980 C 271.460 203.481,271.532 205.319,271.694 205.064 C 272.982 203.030,271.603 194.400,269.989 194.400 C 269.795 194.400,270.093 194.857,270.652 195.416 M150.434 196.559 C 149.408 197.795,150.056 204.991,151.200 205.066 C 152.108 205.125,152.116 205.113,151.286 204.936 C 150.126 204.688,150.042 196.600,151.200 196.600 C 151.678 196.600,151.845 197.410,152.023 200.600 L 152.245 204.600 152.323 200.780 C 152.410 196.446,151.751 194.972,150.434 196.559 M172.279 197.512 C 172.438 198.700,172.311 199.477,171.837 200.200 C 171.323 200.984,171.272 201.377,171.615 201.909 C 172.027 202.548,172.043 202.544,171.830 201.867 C 171.704 201.465,171.870 200.750,172.200 200.278 C 172.868 199.325,172.984 197.310,172.421 196.421 C 172.183 196.044,172.133 196.424,172.279 197.512 M183.403 196.405 C 183.537 196.622,183.901 196.800,184.212 196.800 C 184.662 196.800,184.799 197.824,184.888 201.867 C 184.979 205.967,185.115 206.966,185.600 207.098 C 186.031 207.215,186.063 207.163,185.713 206.915 C 185.387 206.683,185.189 204.939,185.113 201.630 C 185.005 196.889,184.963 196.677,184.080 196.351 C 183.493 196.134,183.248 196.154,183.403 196.405 M219.234 196.559 C 218.208 197.795,218.856 204.991,220.000 205.066 C 220.908 205.125,220.916 205.113,220.086 204.936 C 218.926 204.688,218.842 196.600,220.000 196.600 C 220.478 196.600,220.645 197.410,220.823 200.600 L 221.045 204.600 221.123 200.780 C 221.210 196.446,220.551 194.972,219.234 196.559 M267.680 196.480 C 267.416 196.744,267.200 197.138,267.200 197.356 C 267.200 197.575,267.443 197.421,267.739 197.015 C 268.762 195.616,269.200 196.701,269.200 200.636 C 269.200 204.459,268.557 205.924,267.566 204.358 C 267.337 203.996,267.210 203.968,267.206 204.276 C 267.197 204.973,267.893 205.288,268.804 204.999 C 270.250 204.540,269.867 196.000,268.400 196.000 C 268.268 196.000,267.944 196.216,267.680 196.480 M132.565 196.948 C 132.165 197.989,132.583 201.734,133.110 201.839 C 133.391 201.894,133.436 201.849,133.210 201.737 C 132.448 201.359,132.704 196.884,133.500 196.676 C 134.156 196.504,134.155 196.490,133.487 196.446 C 133.096 196.421,132.680 196.646,132.565 196.948 M168.000 196.732 C 168.000 196.914,168.405 197.049,168.900 197.032 C 169.668 197.005,169.800 197.205,169.800 198.400 C 169.800 199.601,169.670 199.795,168.887 199.767 C 168.322 199.746,168.116 199.876,168.347 200.107 C 168.552 200.312,169.098 200.359,169.560 200.213 C 170.625 199.875,170.790 197.035,169.767 196.643 C 168.870 196.298,168.000 196.342,168.000 196.732 M147.748 200.800 C 147.748 203.110,147.814 204.055,147.895 202.900 C 147.976 201.745,147.976 199.855,147.895 198.700 C 147.814 197.545,147.748 198.490,147.748 200.800 M216.548 200.800 C 216.548 203.110,216.614 204.055,216.695 202.900 C 216.776 201.745,216.776 199.855,216.695 198.700 C 216.614 197.545,216.548 198.490,216.548 200.800 M134.394 199.281 C 134.287 200.536,134.346 201.416,134.524 201.237 C 134.703 201.058,134.790 200.031,134.718 198.956 L 134.587 197.000 134.394 199.281 M136.914 199.000 C 136.917 200.100,136.995 200.503,137.087 199.895 C 137.179 199.286,137.177 198.386,137.082 197.895 C 136.987 197.403,136.911 197.900,136.914 199.000 M154.544 200.800 C 154.544 202.890,154.612 203.745,154.694 202.700 C 154.776 201.655,154.776 199.945,154.694 198.900 C 154.612 197.855,154.544 198.710,154.544 200.800 M223.344 200.800 C 223.344 202.890,223.412 203.745,223.494 202.700 C 223.576 201.655,223.576 199.945,223.494 198.900 C 223.412 197.855,223.344 198.710,223.344 200.800 M202.563 199.290 C 202.620 199.571,203.191 199.892,203.833 200.004 C 204.505 200.121,205.000 200.459,205.000 200.800 C 205.000 201.141,204.505 201.479,203.833 201.596 C 203.191 201.708,202.620 202.030,202.563 202.310 C 202.506 202.591,202.552 202.636,202.663 202.410 C 202.775 202.185,203.280 202.000,203.784 202.000 C 205.070 202.000,205.860 200.995,205.200 200.200 C 204.926 199.870,204.289 199.600,203.784 199.600 C 203.280 199.600,202.775 199.416,202.663 199.190 C 202.552 198.965,202.506 199.010,202.563 199.290 M136.089 202.406 C 135.825 202.829,135.022 203.344,134.304 203.551 C 133.339 203.830,133.228 203.937,133.878 203.964 C 134.768 204.001,137.180 202.248,136.785 201.852 C 136.667 201.734,136.354 201.983,136.089 202.406 M169.460 202.800 C 169.636 203.130,169.874 204.210,169.990 205.200 C 170.187 206.887,170.276 207.000,171.400 207.000 C 172.751 207.000,173.209 205.510,172.448 203.586 C 172.152 202.836,172.113 203.102,172.285 204.700 C 172.507 206.760,172.491 206.800,171.456 206.800 C 170.500 206.800,170.400 206.656,170.400 205.276 C 170.400 204.439,170.117 203.404,169.770 202.976 C 169.424 202.549,169.284 202.470,169.460 202.800 M132.460 205.267 C 132.427 206.073,132.175 206.824,131.900 206.935 C 131.508 207.093,131.511 207.144,131.913 207.168 C 132.592 207.210,132.899 206.328,132.690 204.934 C 132.544 203.959,132.511 204.005,132.460 205.267 M237.047 204.876 C 237.157 205.054,237.888 205.200,238.670 205.200 C 239.984 205.200,240.078 205.279,239.896 206.230 C 239.769 206.896,239.837 207.123,240.087 206.873 C 240.961 205.999,240.216 205.004,238.518 204.776 C 237.599 204.653,236.937 204.698,237.047 204.876 M148.000 205.552 C 148.000 205.942,149.555 207.398,149.723 207.164 C 149.787 207.074,149.426 206.601,148.920 206.114 C 148.414 205.627,148.000 205.374,148.000 205.552 M154.000 205.521 C 154.000 205.770,153.505 206.243,152.900 206.571 C 152.295 206.899,152.005 207.175,152.256 207.184 C 152.953 207.208,154.640 205.709,154.300 205.368 C 154.135 205.202,154.000 205.271,154.000 205.521 M216.800 205.552 C 216.800 205.942,218.355 207.398,218.523 207.164 C 218.587 207.074,218.226 206.601,217.720 206.114 C 217.214 205.627,216.800 205.374,216.800 205.552 M222.800 205.521 C 222.800 205.770,222.305 206.243,221.700 206.571 C 221.095 206.899,220.805 207.175,221.056 207.184 C 221.753 207.208,223.440 205.709,223.100 205.368 C 222.935 205.202,222.800 205.271,222.800 205.521 M100.163 220.890 C 100.240 221.272,101.845 221.428,106.533 221.510 L 112.800 221.620 112.840 243.910 C 112.862 256.170,112.997 266.617,113.140 267.126 C 113.283 267.636,113.352 257.736,113.294 245.126 C 113.235 232.517,113.106 221.975,113.006 221.700 C 112.872 221.329,111.226 221.200,106.646 221.200 C 102.825 221.200,100.389 221.044,100.263 220.790 C 100.151 220.565,100.106 220.610,100.163 220.890 M299.600 220.733 C 299.600 221.055,298.261 221.226,295.300 221.284 L 291.000 221.369 295.165 221.499 C 299.016 221.620,300.625 221.292,299.873 220.540 C 299.723 220.390,299.600 220.477,299.600 220.733 M190.900 221.465 C 190.507 221.624,190.420 226.543,190.495 244.533 L 190.590 267.400 190.795 244.600 L 191.000 221.800 203.200 221.800 L 215.400 221.800 215.605 244.600 L 215.810 267.400 215.905 244.543 C 215.990 224.013,215.936 221.661,215.367 221.443 C 214.613 221.153,191.621 221.174,190.900 221.465 M241.300 221.462 C 240.739 221.692,240.544 244.194,241.100 244.538 C 241.265 244.640,241.400 239.566,241.400 233.262 L 241.400 221.800 252.291 221.694 L 263.181 221.587 263.305 228.694 L 263.429 235.800 263.415 228.600 L 263.400 221.400 252.600 221.328 C 246.660 221.289,241.575 221.349,241.300 221.462 M140.800 235.494 C 140.800 235.662,145.690 235.749,151.668 235.687 C 160.156 235.599,162.616 235.687,162.899 236.087 C 163.175 236.478,163.222 236.457,163.097 236.000 C 162.919 235.347,140.800 234.845,140.800 235.494 M290.864 238.250 C 290.829 238.938,290.711 240.107,290.601 240.850 L 290.403 242.200 290.824 240.858 C 291.055 240.120,291.173 238.950,291.086 238.258 L 290.928 237.000 290.864 238.250 M259.781 241.700 L 258.200 243.400 259.900 241.819 C 261.481 240.348,261.784 240.000,261.481 240.000 C 261.416 240.000,260.651 240.765,259.781 241.700 M284.864 254.906 C 283.492 256.901,280.474 260.094,278.200 261.958 C 276.754 263.143,276.735 263.181,278.000 262.352 C 280.494 260.720,287.263 253.200,286.238 253.200 C 286.128 253.200,285.510 253.968,284.864 254.906 M140.352 267.113 C 140.221 267.907,140.279 268.281,140.501 268.059 C 140.703 267.857,140.801 267.267,140.719 266.746 C 140.593 265.945,140.537 266.002,140.352 267.113 M163.209 267.478 C 163.223 267.978,164.721 269.812,164.939 269.594 C 165.045 269.487,164.697 268.895,164.166 268.278 C 163.635 267.660,163.204 267.300,163.209 267.478 M189.314 268.680 C 188.827 269.186,188.574 269.600,188.752 269.600 C 189.142 269.600,190.598 268.045,190.364 267.877 C 190.274 267.813,189.801 268.174,189.314 268.680 M216.000 268.285 C 216.000 268.634,217.599 269.738,217.800 269.528 C 217.867 269.457,217.489 269.077,216.961 268.681 C 216.432 268.286,216.000 268.108,216.000 268.285 M265.000 268.400 C 264.496 268.617,264.422 268.744,264.800 268.744 C 265.130 268.744,265.760 268.589,266.200 268.400 C 266.704 268.183,266.778 268.056,266.400 268.056 C 266.070 268.056,265.440 268.211,265.000 268.400 M261.800 269.200 C 261.296 269.417,261.222 269.544,261.600 269.544 C 261.930 269.544,262.560 269.389,263.000 269.200 C 263.504 268.983,263.578 268.856,263.200 268.856 C 262.870 268.856,262.240 269.011,261.800 269.200 M121.125 269.899 C 124.493 269.966,129.893 269.966,133.125 269.899 C 136.356 269.832,133.600 269.777,127.000 269.777 C 120.400 269.777,117.756 269.832,121.125 269.899 M171.100 269.899 C 174.235 269.967,179.365 269.967,182.500 269.899 C 185.635 269.832,183.070 269.776,176.800 269.776 C 170.530 269.776,167.965 269.832,171.100 269.899 M228.728 269.900 C 234.518 269.962,243.878 269.962,249.528 269.900 C 255.178 269.837,250.440 269.786,239.000 269.786 C 227.560 269.786,222.938 269.837,228.728 269.900 " stroke="none" fill="#848484" fill-rule="evenodd"></path><path id="path3" d="M215.388 153.800 C 215.388 167.220,215.438 172.652,215.500 165.871 C 215.561 159.090,215.561 148.110,215.500 141.471 C 215.438 134.832,215.388 140.380,215.388 153.800 M241.379 164.800 C 241.379 172.170,241.433 175.185,241.499 171.500 C 241.565 167.815,241.565 161.785,241.499 158.100 C 241.433 154.415,241.379 157.430,241.379 164.800 M162.971 169.200 C 162.971 174.150,163.028 176.175,163.099 173.700 C 163.169 171.225,163.169 167.175,163.099 164.700 C 163.028 162.225,162.971 164.250,162.971 169.200 M131.505 194.283 C 132.002 194.379,132.722 194.375,133.105 194.275 C 133.487 194.175,133.080 194.096,132.200 194.101 C 131.320 194.105,131.007 194.187,131.505 194.283 M167.105 194.283 C 167.602 194.379,168.322 194.375,168.705 194.275 C 169.087 194.175,168.680 194.096,167.800 194.101 C 166.920 194.105,166.607 194.187,167.105 194.283 M184.691 194.289 C 185.401 194.377,186.661 194.379,187.491 194.292 C 188.321 194.205,187.740 194.133,186.200 194.131 C 184.660 194.129,183.981 194.200,184.691 194.289 M201.907 194.290 C 202.626 194.379,203.706 194.377,204.307 194.286 C 204.908 194.195,204.320 194.122,203.000 194.124 C 201.680 194.126,201.188 194.201,201.907 194.290 M236.954 199.600 C 236.954 202.350,237.018 203.475,237.096 202.100 C 237.174 200.725,237.174 198.475,237.096 197.100 C 237.018 195.725,236.954 196.850,236.954 199.600 M253.761 200.800 C 253.761 204.210,253.822 205.605,253.897 203.900 C 253.972 202.195,253.972 199.405,253.897 197.700 C 253.822 195.995,253.761 197.390,253.761 200.800 M168.093 198.400 C 168.093 199.170,168.175 199.485,168.276 199.100 C 168.376 198.715,168.376 198.085,168.276 197.700 C 168.175 197.315,168.093 197.630,168.093 198.400 M267.340 200.800 C 267.340 202.670,267.409 203.435,267.493 202.500 C 267.577 201.565,267.577 200.035,267.493 199.100 C 267.409 198.165,267.340 198.930,267.340 200.800 M168.162 202.954 C 168.045 203.259,168.019 204.294,168.105 205.254 L 168.260 207.000 168.330 204.933 C 168.371 203.712,168.605 202.784,168.900 202.665 C 169.292 202.507,169.289 202.456,168.887 202.432 C 168.606 202.414,168.279 202.649,168.162 202.954 M202.520 204.800 C 202.520 206.010,202.595 206.505,202.687 205.900 C 202.778 205.295,202.778 204.305,202.687 203.700 C 202.595 203.095,202.520 203.590,202.520 204.800 M215.387 244.000 C 215.387 256.210,215.438 261.205,215.500 255.100 C 215.562 248.995,215.562 239.005,215.500 232.900 C 215.438 226.795,215.387 231.790,215.387 244.000 M241.376 233.200 C 241.376 239.470,241.432 242.035,241.499 238.900 C 241.567 235.765,241.567 230.635,241.499 227.500 C 241.432 224.365,241.376 226.930,241.376 233.200 M162.981 251.400 C 162.981 259.760,163.034 263.237,163.099 259.126 C 163.164 255.016,163.164 248.176,163.100 243.926 C 163.035 239.677,162.982 243.040,162.981 251.400 " stroke="none" fill="#7c7c7c" fill-rule="evenodd"></path><path id="path4" d="M149.913 123.495 C 151.076 123.576,152.876 123.576,153.913 123.493 C 154.951 123.411,154.000 123.345,151.800 123.346 C 149.600 123.347,148.751 123.414,149.913 123.495 M145.700 123.876 C 146.085 123.976,146.715 123.976,147.100 123.876 C 147.485 123.775,147.170 123.693,146.400 123.693 C 145.630 123.693,145.315 123.775,145.700 123.876 M156.500 123.876 C 156.885 123.976,157.515 123.976,157.900 123.876 C 158.285 123.775,157.970 123.693,157.200 123.693 C 156.430 123.693,156.115 123.775,156.500 123.876 M142.200 124.400 C 141.111 124.677,141.093 124.707,142.000 124.725 C 142.550 124.735,143.360 124.589,143.800 124.400 C 144.786 123.976,143.866 123.976,142.200 124.400 M159.800 124.381 C 160.568 124.729,162.710 124.956,162.367 124.653 C 162.275 124.572,161.480 124.396,160.600 124.262 C 159.485 124.093,159.242 124.129,159.800 124.381 M138.294 125.485 C 137.245 125.835,136.460 126.194,136.550 126.283 C 136.732 126.465,140.800 125.194,140.800 124.954 C 140.800 124.707,140.321 124.809,138.294 125.485 M163.400 125.200 C 163.840 125.389,164.470 125.544,164.800 125.544 C 165.178 125.544,165.104 125.417,164.600 125.200 C 164.160 125.011,163.530 124.856,163.200 124.856 C 162.822 124.856,162.896 124.983,163.400 125.200 M227.300 125.500 C 232.085 125.563,239.915 125.563,244.700 125.500 C 249.485 125.436,245.570 125.384,236.000 125.384 C 226.430 125.384,222.515 125.436,227.300 125.500 M216.480 126.411 C 215.578 127.251,214.918 129.051,215.352 129.485 C 215.488 129.622,215.600 129.329,215.600 128.836 C 215.600 128.342,216.126 127.412,216.769 126.769 C 218.081 125.457,217.834 125.150,216.480 126.411 M256.600 125.980 C 257.834 126.315,260.664 126.518,260.367 126.250 C 260.275 126.168,259.120 126.000,257.800 125.877 C 256.222 125.730,255.811 125.765,256.600 125.980 M261.400 126.800 C 261.840 126.989,262.560 127.138,263.000 127.132 C 263.643 127.123,263.604 127.057,262.800 126.800 C 261.432 126.362,260.381 126.362,261.400 126.800 M170.800 128.179 C 170.800 128.289,171.340 128.659,172.000 129.000 C 172.660 129.341,173.200 129.531,173.200 129.421 C 173.200 129.311,172.660 128.941,172.000 128.600 C 171.340 128.259,170.800 128.069,170.800 128.179 M173.800 129.864 C 174.020 130.072,175.249 131.030,176.531 131.994 C 179.426 134.169,183.010 138.048,185.249 141.428 C 186.968 144.024,187.628 144.757,186.753 143.100 C 184.833 139.462,177.898 132.046,174.730 130.243 C 173.998 129.827,173.580 129.656,173.800 129.864 M270.400 129.702 C 270.400 129.794,271.845 130.820,273.610 131.982 C 275.376 133.144,278.105 135.469,279.675 137.147 C 281.245 138.826,282.154 139.660,281.695 139.000 C 280.679 137.538,276.714 133.714,274.800 132.350 C 272.923 131.013,270.400 129.495,270.400 129.702 M127.287 131.500 C 126.330 132.435,126.314 132.481,127.181 131.806 C 128.888 130.476,128.969 130.400,128.686 130.400 C 128.536 130.400,127.906 130.895,127.287 131.500 M123.210 134.990 C 122.020 136.195,121.126 137.236,121.223 137.305 C 121.321 137.373,122.374 136.388,123.563 135.115 C 126.306 132.181,126.067 132.097,123.210 134.990 M119.944 138.700 C 118.675 140.232,118.219 140.942,118.681 140.665 C 119.193 140.358,120.969 138.000,120.689 138.000 C 120.598 138.000,120.263 138.315,119.944 138.700 M116.414 143.973 C 115.784 145.151,115.113 147.020,115.437 146.696 C 115.820 146.314,117.207 143.200,116.995 143.200 C 116.903 143.200,116.642 143.548,116.414 143.973 M285.646 146.200 C 285.653 146.420,286.006 147.320,286.429 148.200 C 286.852 149.080,287.086 149.350,286.949 148.800 C 286.667 147.667,285.625 145.588,285.646 146.200 M149.400 149.190 C 148.911 149.394,149.478 149.441,150.859 149.310 C 152.398 149.165,153.730 149.305,155.043 149.753 C 156.102 150.114,156.796 150.252,156.585 150.059 C 155.387 148.970,151.155 148.458,149.400 149.190 M114.046 149.667 C 114.021 150.034,113.896 150.664,113.770 151.067 C 113.552 151.762,113.563 151.763,113.997 151.087 C 114.248 150.696,114.373 150.066,114.273 149.687 C 114.111 149.068,114.088 149.066,114.046 149.667 M145.505 151.100 C 144.722 151.705,143.855 152.560,143.580 153.000 C 143.304 153.440,143.961 153.004,145.039 152.032 C 146.118 151.059,147.075 150.204,147.167 150.132 C 147.258 150.059,147.242 150.000,147.131 150.000 C 147.020 150.000,146.288 150.495,145.505 151.100 M287.206 150.633 C 287.209 151.055,287.395 151.670,287.618 152.000 C 287.915 152.438,287.952 152.276,287.756 151.400 C 287.427 149.929,287.198 149.610,287.206 150.633 M158.124 151.266 C 158.742 151.781,159.613 152.652,160.059 153.201 C 160.505 153.751,160.737 153.930,160.575 153.600 C 160.109 152.649,158.673 151.163,157.800 150.728 C 157.344 150.500,157.483 150.731,158.124 151.266 M189.668 151.000 C 189.662 151.440,189.811 152.160,190.000 152.600 C 190.438 153.619,190.438 152.568,190.000 151.200 C 189.743 150.396,189.677 150.357,189.668 151.000 M242.400 151.447 C 244.517 151.716,253.938 151.786,253.287 151.528 C 252.909 151.379,250.080 151.271,247.000 151.288 C 243.920 151.306,241.850 151.377,242.400 151.447 M258.752 154.700 C 259.768 155.745,260.679 156.551,260.775 156.492 C 260.997 156.354,257.525 152.800,257.168 152.800 C 257.022 152.800,257.735 153.655,258.752 154.700 M288.095 154.000 C 288.095 154.550,288.232 155.540,288.400 156.200 C 288.672 157.270,288.705 157.292,288.705 156.400 C 288.705 155.850,288.568 154.860,288.400 154.200 C 288.128 153.130,288.095 153.108,288.095 154.000 M142.186 155.227 C 141.837 155.902,141.607 156.614,141.676 156.809 C 141.744 157.004,142.102 156.451,142.470 155.582 C 143.265 153.706,143.087 153.484,142.186 155.227 M190.720 165.600 C 190.786 172.090,190.916 177.625,191.008 177.900 C 191.137 178.288,193.886 178.379,203.287 178.306 L 215.400 178.212 203.300 178.100 L 191.200 177.988 191.170 167.694 C 191.154 162.032,191.019 156.590,190.870 155.600 C 190.722 154.610,190.654 159.110,190.720 165.600 M161.844 157.000 C 162.173 158.471,162.402 158.790,162.394 157.767 C 162.391 157.345,162.205 156.730,161.982 156.400 C 161.685 155.962,161.648 156.124,161.844 157.000 M141.001 158.900 C 140.872 159.615,140.819 164.250,140.883 169.200 L 141.000 178.200 151.900 178.306 L 162.800 178.413 162.707 168.506 L 162.615 158.600 162.500 168.300 L 162.386 178.000 151.768 178.000 L 141.150 178.000 141.275 167.800 C 141.405 157.210,141.391 156.746,141.001 158.900 M112.400 167.990 L 112.400 177.979 106.300 178.101 L 100.200 178.222 106.500 178.311 L 112.800 178.400 112.800 168.200 C 112.800 162.590,112.710 158.000,112.600 158.000 C 112.490 158.000,112.400 162.495,112.400 167.990 M288.972 167.000 C 288.972 172.060,289.029 174.075,289.099 171.477 C 289.169 168.880,289.168 164.740,289.098 162.277 C 289.028 159.815,288.971 161.940,288.972 167.000 M261.800 168.600 C 261.800 173.534,261.922 177.262,262.072 176.885 C 262.221 176.508,262.344 172.780,262.344 168.600 C 262.344 164.420,262.221 160.692,262.072 160.315 C 261.922 159.938,261.800 163.666,261.800 168.600 M288.446 177.500 C 288.400 178.397,288.417 178.400,294.100 178.312 L 299.800 178.225 294.327 178.101 C 289.548 177.993,288.831 177.890,288.674 177.289 C 288.541 176.784,288.480 176.840,288.446 177.500 M246.500 178.299 C 249.305 178.368,253.895 178.368,256.700 178.299 C 259.505 178.230,257.210 178.174,251.600 178.174 C 245.990 178.174,243.695 178.230,246.500 178.299 M100.984 180.499 C 100.878 180.775,100.839 189.730,100.896 200.400 L 101.000 219.800 200.000 219.800 L 299.000 219.800 299.000 200.000 L 299.000 180.200 200.088 180.099 C 121.168 180.019,101.137 180.100,100.984 180.499 M98.985 200.000 C 98.985 210.890,99.037 215.345,99.100 209.900 C 99.163 204.455,99.163 195.545,99.100 190.100 C 99.037 184.655,98.985 189.110,98.985 200.000 M298.800 200.000 L 298.800 219.600 200.000 219.600 L 101.200 219.600 101.200 200.000 L 101.200 180.400 200.000 180.400 L 298.800 180.400 298.800 200.000 M300.985 200.000 C 300.985 210.890,301.037 215.345,301.100 209.900 C 301.163 204.455,301.163 195.545,301.100 190.100 C 301.037 184.655,300.985 189.110,300.985 200.000 M130.266 194.102 C 129.657 194.548,129.592 195.330,129.700 201.002 L 129.822 207.400 129.911 200.927 C 130.012 193.560,129.929 193.715,133.540 194.140 C 134.842 194.294,135.100 194.258,134.400 194.020 C 132.884 193.504,131.033 193.541,130.266 194.102 M149.738 193.906 C 149.484 194.068,150.142 194.200,151.200 194.200 C 152.258 194.200,152.916 194.068,152.662 193.906 C 152.408 193.744,151.750 193.612,151.200 193.612 C 150.650 193.612,149.992 193.744,149.738 193.906 M165.866 194.103 C 165.257 194.547,165.192 195.318,165.300 200.803 L 165.422 207.000 165.511 200.727 C 165.612 193.587,165.541 193.716,169.140 194.140 C 170.442 194.294,170.700 194.258,170.000 194.020 C 168.483 193.504,166.633 193.541,165.866 194.103 M183.100 194.032 C 182.315 194.489,182.201 195.498,182.832 196.400 C 183.159 196.867,183.195 196.796,182.993 196.081 C 182.565 194.561,183.420 193.999,186.149 194.006 C 188.868 194.013,189.414 194.227,189.707 195.400 C 189.891 196.136,189.911 196.129,189.954 195.314 C 190.035 193.759,185.141 192.843,183.100 194.032 M200.300 194.032 C 199.674 194.397,199.609 195.104,199.689 200.720 L 199.778 207.000 199.900 200.817 C 199.985 196.496,200.169 194.540,200.511 194.323 C 201.229 193.867,204.714 193.933,205.726 194.422 C 206.570 194.830,206.574 194.823,205.824 194.222 C 204.938 193.513,201.400 193.391,200.300 194.032 M218.538 193.906 C 218.284 194.068,218.942 194.200,220.000 194.200 C 221.058 194.200,221.716 194.068,221.462 193.906 C 221.208 193.744,220.550 193.612,220.000 193.612 C 219.450 193.612,218.792 193.744,218.538 193.906 M234.666 194.103 C 234.057 194.547,233.992 195.318,234.100 200.803 L 234.222 207.000 234.311 200.727 C 234.395 194.796,234.445 194.440,235.219 194.194 C 236.891 193.663,237.200 194.546,237.200 199.849 L 237.200 204.800 238.580 204.800 C 239.473 204.800,240.104 205.047,240.368 205.500 C 240.730 206.121,240.777 206.126,240.788 205.543 C 240.801 204.807,240.011 204.400,238.567 204.400 L 237.600 204.400 237.600 199.662 C 237.600 194.065,236.797 192.544,234.666 194.103 M251.466 194.103 C 250.857 194.547,250.792 195.318,250.900 200.803 L 251.022 207.000 251.111 200.727 C 251.195 194.796,251.245 194.440,252.019 194.194 C 253.725 193.653,253.994 194.507,254.088 200.749 L 254.176 206.600 254.299 200.844 C 254.445 194.049,253.762 192.424,251.466 194.103 M266.800 194.018 C 266.355 194.320,266.484 194.358,267.300 194.169 C 268.797 193.821,270.212 194.232,271.214 195.305 C 271.859 195.996,271.987 196.037,271.776 195.485 C 271.216 194.020,268.138 193.113,266.800 194.018 M136.183 195.107 C 136.656 195.676,137.050 197.020,137.238 198.707 L 137.539 201.400 137.450 198.692 C 137.375 196.406,137.210 195.844,136.395 195.092 L 135.430 194.200 136.183 195.107 M147.443 196.233 C 145.983 200.036,147.806 207.692,150.136 207.546 C 150.991 207.492,150.991 207.489,150.108 207.319 C 148.040 206.919,147.525 205.439,147.669 200.306 C 147.741 197.717,147.774 195.599,147.743 195.599 C 147.711 195.600,147.576 195.885,147.443 196.233 M154.600 200.579 C 154.600 204.896,154.502 205.632,153.815 206.457 L 153.030 207.400 154.015 206.490 C 155.071 205.514,155.706 198.594,154.929 196.522 C 154.727 195.984,154.600 197.553,154.600 200.579 M216.243 196.233 C 214.783 200.036,216.606 207.692,218.936 207.546 C 219.791 207.492,219.791 207.489,218.908 207.319 C 216.840 206.919,216.325 205.439,216.469 200.306 C 216.541 197.717,216.574 195.599,216.543 195.599 C 216.511 195.600,216.376 195.885,216.243 196.233 M223.400 200.579 C 223.400 204.896,223.302 205.632,222.615 206.457 L 221.830 207.400 222.815 206.490 C 223.871 205.514,224.506 198.594,223.729 196.522 C 223.527 195.984,223.400 197.553,223.400 200.579 M264.551 200.800 C 264.551 203.330,264.616 204.365,264.696 203.100 C 264.775 201.835,264.775 199.765,264.696 198.500 C 264.616 197.235,264.551 198.270,264.551 200.800 M272.150 200.600 C 272.151 203.020,272.216 203.958,272.296 202.685 C 272.376 201.412,272.375 199.432,272.294 198.285 C 272.214 197.138,272.149 198.180,272.150 200.600 M132.800 199.200 C 132.800 201.326,132.895 201.640,133.500 201.524 C 134.065 201.415,134.200 200.967,134.200 199.200 C 134.200 197.433,134.065 196.985,133.500 196.876 C 132.895 196.760,132.800 197.074,132.800 199.200 M150.484 200.729 C 150.408 204.471,150.466 204.846,151.100 204.725 C 151.701 204.610,151.814 204.040,151.900 200.695 L 152.000 196.800 151.786 200.600 C 151.507 205.542,150.865 205.483,150.698 200.500 L 150.567 196.600 150.484 200.729 M168.400 198.400 C 168.400 199.764,168.524 200.035,169.100 199.924 C 169.606 199.826,169.800 199.405,169.800 198.400 C 169.800 197.395,169.606 196.974,169.100 196.876 C 168.524 196.765,168.400 197.036,168.400 198.400 M172.901 198.200 C 172.905 199.080,172.987 199.393,173.083 198.895 C 173.179 198.398,173.175 197.678,173.075 197.295 C 172.975 196.913,172.896 197.320,172.901 198.200 M183.887 197.121 C 184.212 197.328,184.415 199.018,184.501 202.215 L 184.628 207.000 184.714 201.900 C 184.792 197.275,184.735 196.801,184.100 196.806 C 183.616 196.810,183.550 196.908,183.887 197.121 M187.774 197.323 C 187.664 197.611,187.625 199.996,187.689 202.623 L 187.804 207.400 188.002 202.099 C 188.197 196.871,188.170 196.292,187.774 197.323 M202.875 198.086 C 202.981 199.176,203.197 199.412,204.291 199.634 C 205.001 199.778,205.486 199.739,205.368 199.548 C 205.249 199.356,204.713 199.200,204.176 199.200 C 202.674 199.200,202.784 197.316,204.300 197.087 C 205.304 196.934,205.285 196.915,204.075 196.860 C 202.813 196.803,202.755 196.862,202.875 198.086 M219.284 200.729 C 219.208 204.471,219.266 204.846,219.900 204.725 C 220.501 204.610,220.614 204.040,220.700 200.695 L 220.800 196.800 220.586 200.600 C 220.307 205.542,219.665 205.483,219.498 200.500 L 219.367 196.600 219.284 200.729 M267.685 200.668 C 267.778 203.845,267.915 204.600,268.400 204.600 C 269.385 204.600,269.273 197.064,268.285 196.873 C 267.632 196.747,267.580 197.073,267.685 200.668 M134.000 199.200 C 134.000 200.300,133.820 201.200,133.600 201.200 C 133.380 201.200,133.200 200.300,133.200 199.200 C 133.200 198.100,133.380 197.200,133.600 197.200 C 133.820 197.200,134.000 198.100,134.000 199.200 M169.600 198.400 C 169.600 199.060,169.420 199.600,169.200 199.600 C 168.980 199.600,168.800 199.060,168.800 198.400 C 168.800 197.740,168.980 197.200,169.200 197.200 C 169.420 197.200,169.600 197.740,169.600 198.400 M268.800 200.800 C 268.800 202.933,268.637 204.400,268.400 204.400 C 268.163 204.400,268.000 202.933,268.000 200.800 C 268.000 198.667,268.163 197.200,268.400 197.200 C 268.637 197.200,268.800 198.667,268.800 200.800 M136.800 201.918 C 136.800 202.166,136.395 202.747,135.900 203.209 C 135.215 203.849,135.170 203.984,135.711 203.778 C 136.499 203.477,137.397 202.064,137.032 201.699 C 136.905 201.571,136.800 201.670,136.800 201.918 M204.100 202.048 C 202.835 202.413,202.802 202.479,202.863 204.511 L 202.926 206.600 203.163 204.603 C 203.351 203.023,203.567 202.577,204.200 202.465 C 204.640 202.386,205.171 202.160,205.380 201.961 C 205.815 201.548,205.834 201.547,204.100 202.048 M168.470 204.700 L 168.540 206.600 168.693 204.891 C 168.778 203.951,169.016 203.286,169.223 203.414 C 169.431 203.542,169.600 203.457,169.600 203.224 C 169.600 202.991,169.330 202.800,169.000 202.800 C 168.541 202.800,168.416 203.247,168.470 204.700 M132.724 205.498 C 132.616 206.800,132.443 207.030,131.400 207.251 C 130.287 207.487,130.274 207.509,131.220 207.553 C 132.524 207.613,133.200 206.929,133.200 205.548 C 133.200 204.733,133.429 204.412,134.100 204.282 C 134.889 204.130,134.867 204.102,133.924 204.054 C 132.958 204.006,132.836 204.153,132.724 205.498 M169.657 205.457 C 169.597 207.208,170.030 207.646,171.733 207.553 C 172.361 207.518,172.269 207.435,171.400 207.250 C 170.369 207.031,170.166 206.771,169.957 205.398 L 169.714 203.800 169.657 205.457 M172.901 205.400 C 172.905 206.280,172.987 206.593,173.083 206.095 C 173.179 205.598,173.175 204.878,173.075 204.495 C 172.975 204.113,172.896 204.520,172.901 205.400 M265.532 206.459 C 266.554 207.622,268.098 208.086,269.375 207.614 C 269.969 207.394,269.722 207.309,268.483 207.309 C 267.245 207.309,266.466 207.044,265.684 206.355 L 264.600 205.400 265.532 206.459 M167.000 207.200 L 165.800 207.505 166.876 207.553 C 167.468 207.579,168.064 207.420,168.200 207.200 C 168.336 206.980,168.392 206.821,168.324 206.847 C 168.256 206.873,167.660 207.032,167.000 207.200 M201.400 207.200 L 200.200 207.505 201.276 207.553 C 201.868 207.579,202.464 207.420,202.600 207.200 C 202.736 206.980,202.792 206.821,202.724 206.847 C 202.656 206.873,202.060 207.032,201.400 207.200 M252.600 207.200 L 251.400 207.505 252.476 207.553 C 253.068 207.579,253.664 207.420,253.800 207.200 C 253.936 206.980,253.992 206.821,253.924 206.847 C 253.856 206.873,253.260 207.032,252.600 207.200 M235.891 207.489 C 236.601 207.577,237.861 207.579,238.691 207.492 C 239.521 207.405,238.940 207.333,237.400 207.331 C 235.860 207.329,235.181 207.400,235.891 207.489 M106.297 221.899 L 112.393 222.021 112.500 244.310 L 112.607 266.600 112.703 244.100 L 112.800 221.600 106.500 221.689 L 100.200 221.778 106.297 221.899 M190.984 222.100 C 190.878 222.375,190.841 232.680,190.900 245.000 L 191.007 267.400 191.103 244.706 L 191.200 222.012 203.300 221.900 L 215.400 221.788 203.287 221.694 C 193.896 221.621,191.132 221.712,190.984 222.100 M246.900 221.899 C 249.925 221.967,254.875 221.967,257.900 221.899 C 260.925 221.831,258.450 221.775,252.400 221.775 C 246.350 221.775,243.875 221.831,246.900 221.899 M291.380 222.109 C 291.272 222.389,291.236 226.664,291.300 231.609 L 291.416 240.600 291.508 231.314 L 291.600 222.028 295.700 221.898 L 299.800 221.769 295.687 221.684 C 292.664 221.622,291.523 221.735,291.380 222.109 M262.870 233.867 C 262.831 234.784,262.696 235.864,262.570 236.267 C 262.353 236.956,262.367 236.957,262.793 236.295 C 263.042 235.907,263.177 234.827,263.093 233.895 L 262.940 232.200 262.870 233.867 M141.067 235.867 C 140.920 236.013,140.800 243.225,140.800 251.893 C 140.800 262.130,140.652 267.959,140.378 268.526 C 139.970 269.370,139.977 269.374,140.578 268.624 C 141.117 267.950,141.200 265.729,141.200 251.917 L 141.200 235.987 151.700 236.093 L 162.200 236.200 162.407 251.200 L 162.615 266.200 162.707 251.143 C 162.790 237.727,162.731 236.059,162.167 235.843 C 161.302 235.511,141.400 235.533,141.067 235.867 M261.486 238.710 L 260.773 240.200 261.577 239.200 C 262.020 238.650,262.386 237.975,262.391 237.700 C 262.405 236.933,262.260 237.095,261.486 238.710 M259.000 241.868 C 258.120 242.657,257.760 243.116,258.200 242.888 C 258.941 242.504,261.151 240.379,260.770 240.417 C 260.676 240.426,259.880 241.079,259.000 241.868 M244.719 244.698 C 246.544 244.772,249.424 244.772,251.119 244.697 C 252.814 244.622,251.320 244.561,247.800 244.562 C 244.280 244.562,242.894 244.624,244.719 244.698 M289.421 246.884 C 288.082 251.040,285.401 255.306,281.433 259.598 C 279.567 261.615,279.543 261.664,281.139 260.198 C 285.222 256.445,291.416 246.083,290.264 244.931 C 290.175 244.842,289.796 245.721,289.421 246.884 M277.585 262.829 L 276.200 264.058 277.700 262.981 C 279.026 262.030,279.457 261.600,279.085 261.600 C 279.022 261.600,278.347 262.153,277.585 262.829 M273.500 265.429 C 272.005 266.240,272.096 266.578,273.600 265.800 C 274.260 265.459,274.800 265.094,274.800 264.990 C 274.800 264.732,274.757 264.747,273.500 265.429 M215.206 266.633 C 215.209 267.055,215.395 267.670,215.618 268.000 C 215.915 268.438,215.952 268.276,215.756 267.400 C 215.427 265.929,215.198 265.610,215.206 266.633 M162.823 267.078 C 162.810 267.560,163.234 268.460,163.765 269.078 L 164.730 270.200 176.369 270.317 C 182.771 270.382,188.265 270.292,188.577 270.117 C 188.890 269.943,183.893 269.846,177.473 269.903 C 164.528 270.018,164.135 269.954,163.323 267.590 C 162.972 266.569,162.839 266.433,162.823 267.078 M270.100 267.034 C 269.385 267.346,268.800 267.694,268.800 267.807 C 268.800 268.015,271.606 266.927,271.946 266.587 C 272.286 266.247,271.420 266.457,270.100 267.034 M112.826 267.320 C 112.773 267.981,113.995 269.913,114.618 270.152 C 115.548 270.508,139.116 270.459,139.339 270.100 C 139.441 269.935,134.186 269.852,127.662 269.915 C 114.150 270.046,114.379 270.072,113.504 268.312 C 113.145 267.590,112.840 267.144,112.826 267.320 M266.400 268.418 C 265.962 268.715,266.124 268.752,267.000 268.556 C 268.471 268.227,268.790 267.998,267.767 268.006 C 267.345 268.009,266.730 268.195,266.400 268.418 M263.400 269.200 C 262.381 269.638,263.432 269.638,264.800 269.200 C 265.604 268.943,265.643 268.877,265.000 268.868 C 264.560 268.862,263.840 269.011,263.400 269.200 M239.200 270.000 L 218.200 270.211 238.800 270.282 C 250.130 270.322,260.120 270.205,261.000 270.023 C 262.222 269.770,262.316 269.704,261.400 269.741 C 260.740 269.767,250.750 269.884,239.200 270.000 " stroke="none" fill="#525252" fill-rule="evenodd"></path></g></svg>